<?xml version="1.0" standalone="no"?>
<!DOCTYPE svg PUBLIC "-//W3C//DTD SVG 20010904//EN"
 "http://www.w3.org/TR/2001/REC-SVG-20010904/DTD/svg10.dtd">
<svg version="1.0" xmlns="http://www.w3.org/2000/svg"
 width="1024.000000pt" height="1024.000000pt" viewBox="0 0 1024.000000 1024.000000"
 preserveAspectRatio="xMidYMid meet">
<metadata>
Created by potrace 1.12, written by Peter Selinger 2001-2015
</metadata>
<g transform="translate(0.000000,1024.000000) scale(0.100000,-0.100000)"
fill="#000000" stroke="none">
<path d="M960 10194 c-86 -89 -105 -107 -170 -164 -36 -31 -108 -98 -160 -149
-52 -51 -120 -112 -150 -134 -30 -23 -57 -44 -60 -47 -26 -27 -139 -120 -146
-120 -5 0 -23 -12 -39 -28 -34 -30 -69 -52 -84 -52 -6 0 -21 -11 -35 -25 -14
-14 -37 -25 -51 -25 -14 0 -25 -4 -25 -9 0 -5 -8 -8 -17 -7 -17 1 -18 -53 -21
-993 l-2 -993 33 28 c19 16 32 32 30 37 -2 4 2 7 9 7 16 1 108 93 108 109 0
14 17 14 22 0 2 -6 20 -11 41 -11 40 0 46 -9 21 -30 -8 -7 -26 -25 -40 -39
-14 -15 -45 -37 -69 -49 -25 -13 -45 -27 -45 -32 0 -4 -7 -8 -17 -8 -9 0 -23
-7 -32 -15 -9 -8 -26 -23 -38 -35 l-23 -20 0 -815 0 -816 147 5 c82 3 148 5
148 6 0 2 123 12 170 14 28 1 59 6 70 11 30 13 79 66 94 103 8 19 23 35 37 38
23 6 29 16 24 39 -1 5 2 7 6 3 11 -12 34 12 27 28 -4 10 0 15 8 14 31 -5 41 0
35 17 -7 16 31 61 46 56 5 -2 8 5 8 15 0 9 10 22 22 27 12 6 32 24 43 41 11
17 26 29 33 26 7 -2 12 1 12 6 0 5 11 13 24 16 14 3 30 19 38 36 13 31 35 36
30 6 -3 -14 1 -13 19 5 17 17 19 23 8 31 -12 8 -12 10 0 15 24 10 61 55 61 75
0 12 6 18 16 16 9 -2 21 6 28 17 6 11 17 25 25 31 8 6 11 16 7 22 -10 16 6 15
24 0 12 -11 12 -10 3 2 -14 20 -13 82 1 77 6 -2 10 -16 8 -31 -2 -19 1 -26 8
-21 7 4 10 21 8 37 -3 20 0 32 9 35 12 5 12 8 2 14 -10 6 -9 13 5 33 9 14 21
26 26 26 13 0 13 47 0 55 -5 3 -10 17 -10 31 0 14 4 22 10 19 12 -8 13 -3 0
29 -5 14 -6 26 -2 26 4 0 7 48 7 108 0 79 -3 110 -14 118 -12 9 -11 12 4 17
11 5 15 13 11 24 -4 9 -1 20 5 24 8 4 4 9 -10 14 -11 3 -21 13 -21 20 0 8 -12
35 -26 61 -19 34 -23 49 -14 54 19 12 3 64 -23 76 -12 5 -21 16 -19 23 1 7 -2
10 -7 6 -6 -3 -17 10 -25 29 -8 19 -23 39 -34 45 -15 8 -22 25 -27 73 -4 35
-8 77 -10 93 -2 17 -2 24 1 18 9 -22 24 -14 24 12 0 15 -6 25 -15 25 -24 0
-63 94 -44 105 5 4 9 12 9 18 0 7 -5 4 -11 -5 -5 -10 -16 -18 -24 -18 -9 0
-12 -6 -9 -15 4 -11 2 -13 -9 -10 -8 4 -21 -1 -30 -9 -9 -9 -19 -16 -24 -16
-13 0 -174 -151 -202 -191 -50 -69 -327 -293 -394 -318 -59 -23 -41 34 34 106
134 127 225 200 312 250 11 6 22 15 26 20 3 5 26 24 51 43 24 19 67 56 95 82
27 26 55 48 61 48 15 0 65 55 57 63 -3 4 7 7 23 8 25 0 26 2 9 8 -16 7 -17 9
-4 12 11 3 13 11 8 29 l-6 25 -10 -25 c-9 -20 -10 -13 -10 43 0 50 3 67 13 67
8 0 14 5 14 10 0 6 -8 10 -17 10 -13 0 -14 3 -5 12 20 20 15 40 -10 33 -17 -6
-20 -4 -15 10 4 9 7 24 7 33 1 15 3 14 15 -2 8 -11 18 -17 22 -13 3 4 -1 15
-10 25 -10 10 -17 30 -17 43 0 27 -25 47 -55 44 -11 -1 -48 -6 -82 -10 -36 -4
-63 -4 -63 1 1 11 76 94 85 94 3 0 17 12 30 26 19 21 22 30 14 45 -7 15 -6 19
5 19 10 0 13 6 10 15 -4 8 -2 15 4 15 5 0 9 8 8 17 0 10 9 22 22 28 12 5 20
16 17 23 -2 7 4 35 15 62 11 28 17 50 13 50 -4 0 -2 5 5 12 7 7 12 19 12 27 0
13 -2 14 -9 2 -15 -23 -32 -4 -20 23 8 17 8 30 -1 46 -10 18 -9 24 7 37 17 14
16 14 -7 9 -24 -5 -24 -4 -6 9 17 13 15 19 -5 17 -4 -1 -5 8 -2 19 5 18 3 20
-15 15 -12 -4 -23 -2 -28 5 -5 9 -2 10 11 6 14 -6 16 -3 12 13 -4 14 0 20 11
20 13 1 11 4 -6 13 -12 7 -20 16 -16 20 4 4 8 20 8 35 1 27 -2 29 -39 30 -37
2 -42 -1 -54 -31 -8 -17 -13 -36 -12 -40 1 -5 -3 -6 -8 -2 -6 3 -26 -11 -46
-32 -19 -20 -35 -34 -35 -30 0 5 -11 -2 -23 -15 -34 -33 -211 -196 -265 -243
-108 -95 -192 -188 -192 -213 0 -8 -22 -22 -34 -22 -1 0 -3 17 -4 37 -3 34 2
42 65 100 37 34 71 63 74 63 4 0 22 15 40 33 19 17 60 55 93 82 32 28 64 55
70 60 6 6 56 51 111 100 55 50 122 111 149 136 l49 47 -34 7 c-32 7 -32 8 -11
16 30 11 28 31 -8 51 -18 10 -30 25 -30 38 0 26 -21 26 -38 0 -7 -11 -17 -20
-23 -20 -6 0 -16 -6 -23 -12 -7 -7 -34 -31 -61 -53 -27 -22 -76 -65 -110 -95
-33 -30 -90 -79 -127 -108 -38 -30 -68 -58 -68 -63 0 -5 -5 -9 -11 -9 -6 0
-29 -16 -51 -35 -23 -19 -45 -32 -49 -29 -5 3 -9 45 -9 95 0 81 2 89 19 89 10
0 41 21 67 46 48 45 128 104 142 104 4 0 30 20 57 45 28 25 56 45 63 45 6 0
12 4 12 10 0 5 19 21 43 34 24 14 54 37 67 51 13 14 29 25 37 25 7 0 13 5 13
10 0 6 6 10 13 10 6 0 20 7 30 14 14 11 16 19 7 40 -6 18 -6 26 1 26 6 0 7 4
4 10 -3 5 -1 18 4 27 9 16 10 16 11 -4 0 -13 5 -23 10 -23 6 0 10 6 10 14 0 8
7 16 15 20 8 3 12 12 9 20 -7 17 54 50 70 37 6 -4 23 -11 39 -13 21 -4 27 -1
27 12 0 14 12 16 75 17 44 0 81 6 90 13 10 8 27 10 52 4 21 -4 49 -7 61 -6 13
2 30 -2 37 -8 17 -14 26 13 30 84 6 102 26 276 34 298 9 24 7 90 -3 106 -3 5
13 29 35 53 23 24 53 60 67 79 15 19 42 53 62 76 19 22 44 52 55 65 11 13 30
36 43 52 l24 27 -339 0 -338 0 -45 -46z m-157 -927 c7 -19 -8 -43 -17 -28 -4
6 -2 11 5 11 8 0 8 4 -1 15 -7 9 -8 15 -2 15 5 0 12 -6 15 -13z m-443 -77
c-38 -40 -110 -100 -121 -100 -13 0 -11 34 3 48 7 7 19 12 28 12 8 0 21 9 28
20 10 17 60 46 84 49 3 1 -7 -12 -22 -29z m222 -1311 l33 -31 -36 -31 c-70
-62 -121 -102 -132 -106 -7 -2 -24 -13 -40 -23 -15 -11 -34 -18 -43 -16 -13 2
-2 23 46 88 67 91 119 150 132 150 5 0 23 -14 40 -31z m471 -342 c-3 -6 -8
-34 -9 -61 -1 -28 -3 -54 -3 -58 -1 -5 -8 -8 -16 -8 -8 0 -15 -4 -15 -9 0 -16
-179 -185 -285 -269 -5 -4 -37 -30 -71 -57 -34 -28 -74 -59 -90 -70 -27 -19
-122 -103 -189 -168 -61 -58 -65 -57 -65 28 0 58 3 75 14 75 8 0 21 6 28 13
94 92 216 189 234 186 4 0 10 3 13 8 3 5 29 26 56 48 70 55 109 91 257 238 71
70 133 125 139 122 5 -4 6 -11 2 -18z m147 -267 c0 -5 -2 -10 -4 -10 -3 0 -8
5 -11 10 -3 6 -1 10 4 10 6 0 11 -4 11 -10z m-180 -157 c0 -22 -24 -52 -118
-143 -130 -127 -137 -133 -301 -256 -63 -48 -154 -119 -203 -160 -49 -41 -91
-74 -93 -74 -3 0 -5 9 -5 19 0 19 230 260 292 306 14 11 65 52 113 90 48 39
92 72 98 74 7 2 17 9 23 15 7 6 44 38 84 71 40 33 78 65 84 72 18 20 26 15 26
-14z m-34 -365 c-25 -171 -25 -173 -106 -228 -39 -27 -54 -39 -122 -103 -26
-25 -74 -64 -105 -88 -32 -24 -81 -66 -110 -92 -28 -27 -66 -61 -84 -75 -18
-15 -50 -42 -70 -59 -46 -42 -59 -41 -59 1 0 19 -5 47 -11 63 -7 20 -7 29 1
31 6 2 25 26 43 52 18 27 58 68 88 92 30 24 73 64 97 90 24 25 70 66 103 90
76 55 187 137 218 163 61 50 106 91 109 98 10 20 14 2 8 -35z"/>
<path d="M9170 10225 c-17 -20 -136 -98 -185 -120 -22 -11 -44 -25 -48 -32
-12 -20 -129 -103 -144 -103 -7 0 -27 -15 -45 -33 -35 -35 -123 -97 -138 -97
-4 0 -10 -4 -12 -9 -1 -5 -24 -24 -49 -44 -33 -25 -53 -33 -71 -30 -14 3 -29
0 -32 -6 -4 -6 -15 -11 -25 -11 -24 0 -50 -30 -61 -72 -9 -29 1 -256 14 -338
3 -14 5 -33 5 -42 1 -12 6 -15 17 -11 16 6 56 -11 87 -36 17 -14 20 -14 28 2
13 22 35 22 47 0 9 -15 12 -14 33 5 26 25 49 28 67 10 9 -9 12 -9 12 4 0 15 4
16 102 19 42 2 47 5 52 30 5 29 90 119 110 119 14 0 77 34 151 81 22 14 56 34
75 45 19 10 37 22 40 25 10 12 107 76 140 92 43 22 126 80 163 115 15 14 27
23 27 19 0 -3 11 4 24 16 13 12 37 33 55 47 17 14 43 35 57 48 15 12 33 22 39
22 7 0 15 7 19 15 3 8 13 15 21 15 9 0 46 31 83 68 37 38 80 77 95 86 45 27
107 87 107 102 0 22 -842 21 -860 -1z"/>
<path d="M5490 9580 c-32 -21 -149 -49 -235 -55 -53 -5 -107 -15 -133 -26 -23
-11 -57 -22 -75 -26 -17 -3 -39 -9 -47 -14 -9 -4 -42 -10 -75 -13 -96 -10
-134 -17 -141 -27 -17 -29 -180 -79 -254 -79 -17 0 -54 -16 -84 -35 -30 -19
-61 -35 -69 -35 -7 0 -17 -3 -21 -7 -4 -4 -18 -9 -31 -10 -13 -2 -54 -15 -90
-28 -36 -14 -79 -25 -95 -25 -18 0 -42 -11 -62 -28 -18 -16 -58 -38 -88 -49
-30 -11 -71 -26 -90 -33 -19 -7 -45 -13 -58 -15 -12 -1 -32 -11 -45 -22 -20
-17 -47 -32 -176 -92 -19 -9 -39 -16 -45 -17 -35 -3 -67 -19 -90 -45 -25 -28
-136 -89 -161 -89 -15 0 -60 -48 -53 -56 4 -3 0 -21 -8 -39 -8 -19 -14 -46
-14 -60 0 -14 -11 -37 -25 -51 -21 -21 -83 -96 -180 -219 -32 -41 -68 -90
-110 -153 -20 -29 -45 -58 -55 -65 -11 -6 -20 -15 -20 -19 0 -4 -10 -19 -21
-32 -23 -27 -42 -57 -59 -96 -12 -26 -58 -85 -108 -136 -16 -17 -63 -76 -103
-130 -41 -55 -77 -101 -81 -104 -3 -3 -14 -24 -23 -48 -10 -23 -20 -42 -25
-42 -4 0 -15 -16 -26 -35 -10 -19 -22 -35 -26 -35 -4 0 -14 -12 -23 -27 -9
-16 -24 -41 -35 -58 -11 -16 -33 -55 -49 -85 -30 -56 -73 -110 -89 -110 -5 0
-17 -18 -27 -40 -14 -31 -15 -43 -6 -54 6 -7 13 -28 14 -45 1 -17 5 -31 10
-31 4 0 7 -6 7 -13 0 -26 25 -64 50 -75 62 -28 240 -228 307 -343 12 -21 31
-48 43 -61 12 -13 51 -65 87 -116 36 -51 76 -100 89 -109 13 -8 24 -21 24 -28
0 -8 11 -22 23 -32 48 -37 296 -345 297 -367 0 -5 19 -32 42 -60 54 -66 127
-104 164 -87 20 9 32 8 59 -5 55 -26 94 -7 124 60 10 22 29 55 42 71 44 55
286 290 330 320 24 16 72 51 105 77 34 26 66 48 72 48 5 0 38 19 73 43 57 38
209 117 225 117 3 0 20 6 37 14 59 27 122 44 132 36 6 -4 44 4 85 17 101 34
221 33 259 -1 9 -8 18 -14 21 -14 17 0 60 -27 60 -39 0 -7 11 -13 25 -13 21 0
26 -6 31 -40 4 -22 10 -40 14 -40 10 0 23 -91 24 -171 0 -65 -3 -78 -52 -174
-25 -49 -36 -67 -52 -86 -29 -34 -41 -50 -92 -117 -58 -77 -227 -251 -245
-252 -6 0 -14 -8 -17 -17 -16 -48 -372 -375 -451 -415 -22 -11 -50 -33 -63
-48 -23 -29 -126 -100 -197 -135 -22 -11 -44 -26 -48 -32 -13 -21 -111 -90
-149 -106 -20 -8 -42 -25 -51 -37 -15 -22 -111 -90 -127 -90 -5 0 -10 -4 -12
-9 -8 -21 -97 -79 -115 -75 -28 8 -90 -23 -110 -53 -15 -22 -18 -50 -18 -158
0 -71 3 -150 8 -174 9 -54 17 -261 22 -596 4 -238 8 -346 23 -585 4 -58 3
-130 -1 -160 -16 -100 28 -250 72 -250 9 0 30 -13 46 -30 35 -36 81 -52 140
-49 24 2 47 1 49 -2 3 -3 36 -2 73 2 37 4 71 4 76 0 24 -23 -137 -149 -212
-166 -17 -4 -36 -16 -43 -28 -6 -12 -14 -24 -17 -27 -3 -3 -11 -14 -17 -25 -6
-11 -24 -21 -39 -23 -36 -5 -47 -16 -68 -72 -22 -58 -22 -122 0 -163 20 -40
29 -76 49 -197 21 -132 23 -158 29 -300 3 -69 8 -177 11 -240 3 -63 5 -169 5
-235 -1 -140 13 -229 35 -221 8 3 14 2 14 -3 0 -8 41 -24 66 -26 6 0 34 -20
62 -43 29 -25 53 -38 57 -32 10 16 25 11 18 -6 -5 -14 -1 -16 21 -12 20 4 31
-1 45 -18 10 -13 25 -24 33 -24 7 0 19 -9 26 -21 7 -11 19 -18 27 -15 8 3 17
1 20 -4 3 -4 23 -11 46 -15 24 -4 52 -18 70 -36 16 -15 29 -23 29 -16 1 8 5 7
13 -3 9 -11 31 -14 92 -13 198 6 365 3 425 -5 48 -7 87 -6 148 4 46 8 95 14
110 13 45 -1 163 10 174 17 14 9 61 12 273 18 94 2 170 5 170 6 0 7 143 8 174
1 30 -6 45 -5 58 5 10 7 24 14 31 14 15 0 52 36 52 50 0 5 5 10 10 10 6 0 10
6 10 13 0 15 41 58 115 122 32 28 67 57 76 67 9 9 26 19 38 23 12 3 21 10 21
14 0 4 17 17 38 29 20 11 44 29 53 39 19 23 140 130 168 149 12 9 21 21 21 27
0 7 16 22 35 35 19 12 35 27 35 32 0 6 4 10 9 10 6 0 24 13 40 28 24 22 32 38
34 72 2 25 0 53 -5 63 -5 10 -6 26 -2 35 4 9 9 26 10 37 2 11 8 40 14 65 23
95 30 151 40 334 6 104 15 196 20 206 5 9 7 39 4 66 -2 27 0 69 6 94 12 50 15
380 5 509 -5 58 -14 98 -31 131 -13 26 -24 60 -24 75 0 33 -55 105 -80 105 -9
0 -23 7 -30 15 -12 14 -26 14 -82 -2 -10 -2 -18 -11 -18 -19 0 -11 -16 -13
-87 -9 -65 3 -91 1 -102 -9 -19 -16 -149 -51 -158 -42 -4 3 69 80 162 170 160
156 200 186 267 200 21 5 29 14 34 41 4 24 14 39 33 48 14 7 32 26 40 42 8 17
19 33 25 37 12 8 13 149 1 213 -9 48 -9 70 -1 201 4 55 8 168 11 250 5 164 14
310 22 364 3 19 7 67 7 106 2 71 2 72 50 122 27 28 56 62 64 74 9 13 31 41 49
63 19 22 45 54 58 70 38 48 109 127 123 139 7 6 21 20 30 31 9 11 56 60 105
109 48 48 87 93 87 98 0 5 27 37 60 70 33 34 60 65 60 69 0 4 17 19 38 35 37
28 172 160 172 169 0 3 46 52 103 110 90 93 161 175 192 223 6 9 18 23 27 32
40 37 165 203 220 293 34 54 74 108 90 120 16 12 40 46 55 77 14 30 36 66 49
79 13 13 24 30 24 37 0 8 5 14 10 14 6 0 10 11 10 25 0 28 37 143 53 163 11
14 13 43 22 302 10 277 5 344 -36 560 -12 58 -21 110 -22 115 -1 6 -6 13 -10
16 -4 3 -12 33 -17 66 -4 34 -13 69 -18 79 -6 11 -13 40 -17 67 -4 26 -11 47
-16 47 -5 0 -9 11 -9 25 0 14 -4 25 -9 25 -6 0 -33 47 -61 105 -28 57 -55 107
-60 110 -6 4 -8 10 -5 15 3 5 -8 30 -25 56 -16 26 -30 55 -30 63 0 9 -14 30
-31 46 -17 17 -40 46 -50 65 -33 59 -66 101 -132 164 -34 34 -81 82 -105 108
-23 26 -52 52 -64 59 -12 7 -31 23 -41 36 -10 12 -27 23 -37 23 -11 0 -24 9
-30 20 -6 11 -17 20 -24 20 -8 0 -16 7 -20 15 -3 8 -14 15 -24 15 -11 0 -25 7
-32 15 -7 8 -20 15 -30 15 -9 0 -20 3 -24 7 -11 11 -76 31 -76 23 0 -4 -11 -5
-25 -2 -14 2 -31 0 -38 -5 -6 -5 -59 -10 -115 -11 -57 -1 -109 -6 -116 -11 -9
-7 -16 -7 -24 1 -6 6 -24 12 -39 14 -83 8 -117 17 -136 35 -12 11 -28 17 -35
14 -8 -3 -27 9 -43 26 -15 17 -33 28 -39 24 -5 -3 -25 5 -43 19 -19 15 -39 26
-46 26 -7 0 -9 5 -6 10 3 6 -1 10 -10 10 -9 0 -23 6 -30 13 -8 6 -35 28 -60
47 -25 19 -45 41 -45 48 0 7 -12 18 -27 24 -16 7 -51 28 -80 46 l-52 34 -178
-7 c-240 -10 -453 -8 -487 4 -32 13 -28 13 -46 1z m790 -404 c19 -1 53 -3 75
-4 22 -1 46 -6 53 -11 23 -14 -24 -77 -145 -198 -62 -62 -110 -113 -107 -113
3 0 -1 -6 -8 -14 -7 -8 -26 -31 -43 -52 -16 -21 -68 -77 -115 -124 -103 -102
-245 -254 -319 -339 -48 -56 -56 -62 -80 -55 -14 4 -35 8 -46 9 -11 1 -33 7
-48 13 -16 7 -33 12 -38 12 -5 0 -9 5 -9 10 0 6 -15 10 -32 10 -18 0 -40 4
-47 9 -9 6 -22 6 -32 0 -10 -5 -27 -5 -40 0 -13 4 -38 5 -56 1 -18 -5 -33 -5
-33 -1 0 16 274 305 593 625 112 112 166 174 162 184 -3 8 -3 24 1 35 6 19 12
19 143 13 75 -4 152 -8 171 -10z m-600 -4 c0 -2 -26 -33 -58 -67 -33 -34 -74
-85 -92 -114 -18 -28 -35 -51 -37 -51 -2 0 -1 6 3 13 4 6 -14 -8 -39 -32 -33
-32 -43 -47 -34 -53 8 -5 3 -8 -13 -8 -20 0 -22 -2 -10 -10 13 -9 13 -11 1
-19 -8 -5 -20 -7 -28 -4 -7 3 -13 -1 -13 -10 0 -8 -10 -21 -22 -30 -28 -17
-102 -92 -240 -240 -191 -204 -226 -237 -256 -237 -15 0 -61 -6 -102 -14 -41
-8 -109 -17 -150 -21 -41 -4 -77 -8 -81 -10 -3 -2 -24 -8 -47 -14 -56 -12 -55
4 1 62 58 60 141 156 147 170 3 7 39 48 81 92 42 44 112 118 155 165 43 47
112 117 153 156 73 72 73 72 69 118 -3 43 -1 47 22 52 14 3 43 12 65 21 103
39 525 108 525 85z m1105 -123 c44 -17 105 -40 135 -51 30 -10 78 -30 107 -44
28 -13 57 -24 63 -24 12 0 4 -15 -51 -96 -15 -22 -61 -73 -104 -114 -110 -108
-161 -170 -146 -179 9 -6 7 -11 -5 -22 -12 -9 -15 -10 -10 -1 27 46 -76 -28
-170 -122 -39 -39 -91 -90 -115 -112 -24 -23 -86 -86 -138 -141 -51 -55 -101
-99 -110 -98 -19 2 -89 30 -111 45 -32 21 -83 40 -116 42 -19 1 -34 6 -34 10
0 4 -9 8 -19 8 -11 0 -23 5 -26 10 -4 6 -11 8 -16 5 -5 -4 -16 -2 -24 3 -13 7
-1 26 66 108 44 54 94 112 110 129 16 16 68 75 116 130 49 55 165 177 259 272
94 94 188 195 210 222 21 28 41 51 44 51 3 0 41 -14 85 -31z m-2083 -152 c-9
-20 -23 -36 -29 -37 -7 0 -19 -15 -27 -33 -14 -35 -60 -87 -76 -87 -16 0 -81
-75 -86 -101 -4 -16 -16 -29 -35 -36 -26 -10 -37 -25 -54 -78 -4 -13 -8 -16
-13 -8 -8 13 -125 -98 -120 -113 4 -13 -24 -49 -45 -57 -10 -4 -15 -11 -12
-17 3 -5 -5 -14 -18 -19 -13 -5 -58 -46 -99 -92 -73 -80 -77 -82 -124 -84 -63
-3 -140 -23 -155 -41 -6 -8 -19 -14 -29 -14 -18 0 -96 -29 -166 -61 -87 -40
-77 -25 115 168 93 94 177 182 186 197 10 14 23 26 30 26 7 0 15 4 17 10 2 5
46 53 99 107 108 110 119 126 119 180 1 35 4 39 48 59 26 12 61 25 77 29 17 3
57 17 90 30 189 74 313 116 322 110 1 0 -5 -18 -15 -38z m2674 -187 c24 -22
48 -40 54 -40 5 0 10 -5 10 -10 0 -6 18 -33 40 -61 22 -28 40 -55 40 -61 0 -9
-60 -83 -128 -158 -12 -14 -130 -135 -262 -270 -132 -135 -240 -251 -240 -257
0 -7 -7 -13 -16 -13 -9 0 -39 -22 -66 -50 -27 -27 -55 -50 -62 -50 -12 0 -27
10 -86 58 -15 12 -32 22 -38 22 -5 0 -12 6 -15 13 -2 7 -25 23 -51 36 -98 51
-107 34 145 278 123 120 310 305 415 411 105 105 197 192 204 192 7 0 32 -18
56 -40z m-3786 -340 c18 0 19 -3 10 -20 -6 -12 -22 -26 -36 -32 -13 -6 -24
-16 -24 -22 -1 -14 -57 -76 -70 -76 -14 0 -80 -63 -80 -77 0 -7 -4 -13 -10
-13 -5 0 -10 -6 -10 -14 0 -8 -9 -18 -20 -21 -11 -3 -20 -11 -20 -16 0 -5 -5
-9 -10 -9 -32 0 -210 -177 -219 -218 -2 -9 -9 -21 -17 -27 -7 -5 -20 -23 -28
-40 -12 -23 -30 -35 -76 -51 -33 -12 -60 -20 -60 -16 0 14 85 132 95 132 13 0
65 55 65 69 0 5 12 19 28 31 15 12 32 30 37 40 6 10 36 45 68 79 31 34 57 66
57 71 0 5 26 30 58 56 31 25 66 59 77 75 11 16 23 29 27 29 4 0 25 16 45 35
21 19 43 39 48 44 6 5 17 5 27 0 9 -5 26 -9 38 -9z m4087 -87 c17 -23 103
-198 103 -211 0 -6 7 -18 16 -27 30 -29 1 -66 -231 -299 -71 -71 -137 -147
-147 -167 -9 -21 -27 -43 -40 -50 -23 -12 -64 -52 -127 -124 -18 -21 -49 -49
-67 -61 -30 -21 -35 -22 -49 -7 -20 20 -60 95 -57 109 2 12 -52 66 -65 65 -4
0 -8 8 -8 18 0 10 -11 28 -25 39 -24 19 -24 21 -7 39 9 11 17 23 17 28 0 9
658 665 667 665 3 0 12 -8 20 -17z m-2542 -474 c39 1 83 3 100 5 16 2 54 0 85
-6 30 -5 93 -10 140 -12 100 -4 187 -14 215 -25 24 -10 111 -32 141 -36 12 -2
35 -10 52 -19 17 -9 36 -16 42 -16 7 0 24 -9 40 -20 15 -11 30 -17 32 -14 7 6
57 -15 87 -38 13 -10 31 -18 41 -18 9 0 34 -11 54 -25 20 -14 40 -24 44 -23
17 5 192 -118 192 -135 0 -4 5 -5 10 -2 6 3 13 -2 17 -11 8 -20 92 -104 105
-104 4 0 8 -6 8 -13 0 -7 23 -40 50 -74 28 -34 50 -66 50 -71 0 -5 8 -20 19
-33 32 -42 101 -171 143 -269 24 -56 39 -99 72 -218 26 -93 26 -94 10 -173 -9
-44 -14 -90 -11 -101 3 -12 0 -33 -8 -49 -8 -15 -17 -47 -20 -71 -11 -95 -40
-200 -65 -238 -8 -12 -62 -127 -93 -200 -4 -8 -11 -22 -16 -30 -4 -8 -16 -31
-26 -50 -10 -19 -23 -40 -29 -45 -13 -13 -33 -43 -45 -70 -5 -11 -38 -59 -73
-105 -64 -85 -147 -169 -342 -350 -57 -52 -108 -104 -115 -115 -7 -12 -51 -54
-98 -95 -48 -41 -133 -120 -190 -175 -56 -55 -126 -117 -155 -138 -29 -20 -71
-54 -94 -75 -74 -67 -104 -92 -111 -92 -5 0 -22 -12 -38 -28 -37 -33 -70 -52
-89 -52 -8 0 -21 -8 -28 -19 -8 -11 -25 -18 -42 -18 -15 -1 -31 -6 -35 -12 -4
-6 -31 -13 -59 -15 -54 -5 -104 -32 -123 -67 -7 -14 -7 -34 0 -67 21 -97 28
-291 26 -730 -2 -323 -6 -457 -14 -465 -6 -6 -11 -7 -11 -3 0 5 -7 3 -15 -4
-26 -22 -493 -14 -830 15 -22 2 -89 4 -150 6 -130 3 -203 16 -210 38 -4 14 -8
567 -5 626 3 41 -12 242 -21 285 -5 25 -11 65 -14 90 -4 25 -10 71 -14 102 -4
36 -3 64 3 76 17 29 76 77 126 101 60 29 91 47 99 58 3 6 35 26 71 46 36 20
75 45 87 57 12 11 24 20 27 20 3 0 24 12 48 28 24 15 51 32 60 37 40 23 109
75 198 148 113 92 102 83 170 129 30 20 75 59 100 86 25 27 66 62 90 78 48 31
109 93 110 109 0 6 12 22 28 36 15 15 39 39 53 55 35 39 77 75 120 101 19 13
57 52 84 88 26 36 55 71 65 78 35 26 70 86 99 172 16 50 43 128 60 175 51 147
75 281 74 410 -2 110 -48 329 -73 351 -11 9 -16 19 -13 23 4 3 1 6 -5 6 -7 0
-12 8 -12 19 0 10 -7 24 -15 31 -8 7 -15 17 -15 22 0 38 -227 238 -271 238 -5
0 -9 5 -9 10 0 6 -9 10 -19 10 -11 0 -23 5 -26 10 -8 13 -71 40 -104 44 -14 2
-33 6 -41 9 -24 9 -96 16 -229 23 -138 7 -172 2 -341 -54 -58 -19 -114 -35
-125 -36 -11 -1 -37 -10 -59 -19 -21 -9 -43 -17 -49 -17 -6 0 -33 -17 -61 -38
-28 -21 -103 -69 -166 -106 -195 -115 -223 -133 -234 -148 -11 -14 -71 -56
-128 -88 -15 -8 -55 -39 -87 -67 -33 -29 -62 -53 -66 -53 -8 0 -54 53 -55 63
0 5 -23 34 -51 65 -28 32 -58 71 -66 87 -9 17 -31 48 -49 71 -19 23 -34 46
-34 52 0 6 -18 32 -40 59 -23 26 -50 59 -60 71 -11 13 -20 27 -20 30 0 4 -15
23 -33 43 -61 67 -60 65 -42 93 10 14 22 26 29 26 6 0 16 8 23 19 6 10 24 22
39 25 15 4 39 15 53 25 51 36 123 72 150 75 14 1 38 14 53 27 14 13 48 35 75
48 26 13 60 30 75 38 15 8 51 21 80 29 28 9 64 29 80 44 23 23 164 100 184
100 3 0 24 8 47 19 23 10 66 24 95 32 28 7 52 16 52 20 0 4 8 9 18 13 9 3 24
9 32 14 43 26 80 42 94 42 9 0 24 4 34 9 57 31 135 54 185 57 34 1 70 10 90
22 29 18 133 35 277 45 25 2 81 11 125 20 44 8 103 20 130 25 28 6 73 8 100 5
28 -3 82 -5 120 -4z m2771 -242 l7 -147 -43 -57 c-23 -32 -130 -143 -236 -248
-251 -246 -272 -264 -276 -232 -9 78 -32 139 -60 159 -16 11 -26 24 -23 29 4
5 1 9 -4 9 -6 0 -11 3 -11 8 0 6 64 82 90 107 93 88 212 211 234 243 15 23 39
48 52 57 14 9 29 27 34 41 5 13 16 24 24 24 7 0 53 39 100 87 57 58 89 84 96
77 5 -5 13 -76 16 -157z m-176 -685 c0 -4 -4 -12 -8 -17 -5 -6 -15 -26 -23
-45 -7 -19 -32 -62 -55 -95 -23 -33 -49 -76 -59 -95 -10 -19 -33 -53 -51 -76
-19 -23 -34 -45 -34 -50 0 -5 -10 -20 -21 -34 -11 -14 -31 -42 -45 -62 -29
-45 -53 -50 -56 -10 -9 145 -2 168 57 216 16 14 77 70 135 126 57 55 107 100
110 100 4 0 13 11 20 25 13 24 30 34 30 17z m-1680 -2752 c0 -33 -31 -65 -296
-306 -133 -121 -339 -289 -368 -300 -14 -5 -16 5 -16 85 0 50 3 90 8 89 13 -4
72 21 72 30 0 16 63 72 115 102 28 16 70 47 95 69 25 22 50 41 56 41 7 0 14 7
18 15 3 8 9 14 13 13 4 -2 34 16 65 40 31 23 62 42 68 42 5 0 10 4 10 10 0 5
15 16 33 24 17 7 45 28 61 45 39 41 66 41 66 1z m-624 -107 c-38 -35 -62 -51
-68 -45 -14 14 10 55 27 48 8 -3 21 5 30 17 16 23 57 48 65 40 3 -3 -21 -30
-54 -60z m545 -271 c-6 -10 -29 -36 -53 -57 -43 -38 -145 -133 -249 -232 -31
-29 -59 -53 -62 -53 -8 0 -177 -166 -177 -173 0 -11 -39 -47 -50 -47 -5 0 -10
12 -10 28 0 27 19 48 104 117 20 17 54 46 75 65 40 37 50 46 196 174 50 43
103 90 120 105 59 52 107 91 111 91 3 0 0 -8 -5 -18z m-284 -968 c-4 -4 5 -17
19 -29 22 -19 24 -26 15 -44 -7 -11 -16 -21 -21 -21 -10 0 -23 -10 -88 -67
-20 -18 -42 -33 -48 -33 -6 0 -23 -9 -37 -20 -28 -22 -47 -26 -47 -8 0 13 99
148 143 196 17 17 40 32 51 32 10 0 16 -3 13 -6z m323 -247 c-63 -62 -135
-135 -160 -163 -114 -127 -388 -330 -412 -306 -10 10 4 48 24 72 7 8 56 53
108 100 52 47 97 87 100 90 13 14 79 60 85 60 4 0 21 11 39 25 17 14 36 29 41
33 54 40 106 82 135 110 19 18 52 42 72 52 20 11 39 24 43 30 3 5 14 10 23 10
10 0 -29 -46 -98 -113z m-1695 24 c16 -1 12 -9 -26 -44 -25 -23 -54 -49 -65
-57 -69 -53 -94 -70 -102 -70 -5 0 -17 -9 -27 -20 -10 -11 -23 -20 -29 -20 -6
-1 -22 -10 -35 -20 -19 -17 -23 -27 -18 -56 l6 -36 -100 5 c-56 3 -103 7 -105
10 -3 2 8 12 23 22 15 10 32 22 38 27 23 19 86 58 94 58 5 0 25 14 46 30 21
17 43 30 49 30 7 0 27 13 46 30 19 16 42 29 51 30 17 0 50 33 67 65 7 15 19
20 39 19 15 -1 37 -3 48 -3z m406 -21 c20 -13 -59 -81 -200 -172 -14 -10 -33
-22 -41 -28 -8 -6 -30 -19 -47 -30 -25 -15 -33 -27 -33 -48 l0 -28 -72 1 c-41
0 -73 5 -75 11 -2 5 54 53 124 105 150 111 161 122 169 166 l6 33 79 -1 c43
-2 83 -6 90 -9z m329 -28 c0 -9 -97 -103 -159 -155 -29 -24 -33 -32 -29 -65 3
-20 8 -45 13 -55 7 -17 0 -18 -111 -13 -66 2 -121 5 -123 5 -3 1 17 15 45 32
27 17 54 37 60 45 6 7 40 36 75 64 35 27 75 60 89 73 14 14 33 27 43 31 11 3
21 15 24 26 4 15 14 20 39 20 19 0 34 -4 34 -8z m272 -4 c3 -7 21 -12 41 -11
20 1 37 -2 37 -5 0 -15 -87 -91 -129 -113 -88 -48 -130 -81 -156 -122 -15 -23
-23 -27 -44 -22 -39 10 -39 13 4 51 109 95 225 209 225 221 0 16 17 17 22 1z
m819 -210 c-12 -10 -21 -22 -21 -26 0 -16 -188 -199 -255 -248 -22 -16 -65
-49 -95 -74 -31 -25 -71 -56 -89 -70 -18 -14 -61 -50 -95 -80 -34 -30 -69 -61
-76 -68 -8 -7 -28 -23 -43 -37 -15 -14 -30 -25 -33 -25 -2 0 -4 34 -4 75 0 58
3 75 14 75 8 0 21 6 28 13 59 59 161 144 207 175 110 71 190 140 334 286 48
50 100 97 115 106 l27 17 3 -50 c3 -40 -1 -53 -17 -69z m-1 -308 c0 -16 -6
-33 -12 -37 -7 -4 -33 -30 -58 -58 -64 -71 -222 -209 -326 -285 -49 -35 -136
-103 -194 -150 -128 -106 -130 -107 -130 -81 0 13 51 72 139 158 76 76 147
145 158 154 102 82 202 159 208 159 3 0 16 11 29 25 13 14 28 25 35 25 6 0 11
4 11 9 0 5 26 28 58 52 31 23 59 46 60 51 8 19 22 6 22 -22z m-1164 -53 c5 -5
23 -139 31 -227 3 -36 6 -190 7 -344 l1 -278 -165 -3 c-91 -2 -248 -7 -350
-11 -102 -3 -192 -6 -200 -6 -8 1 -69 -3 -135 -9 -164 -13 -282 -17 -296 -9
-8 5 -9 30 -4 81 9 97 14 361 7 373 -3 5 -6 39 -8 75 -1 36 -7 102 -13 146 -6
44 -14 108 -17 143 l-5 62 53 0 c148 2 793 12 795 13 3 4 296 -3 299 -6z
m1125 -349 c-6 -17 -11 -45 -11 -63 0 -30 -44 -104 -63 -105 -5 0 -14 -6 -22
-12 -7 -7 -30 -26 -51 -43 -20 -16 -54 -46 -74 -65 -50 -47 -129 -113 -149
-124 -9 -5 -43 -35 -76 -67 -33 -31 -82 -75 -110 -96 -27 -22 -56 -47 -64 -56
-19 -23 -31 -12 -31 28 0 19 -5 46 -10 61 -9 22 -8 29 4 36 9 5 27 28 40 51
14 23 50 62 81 86 30 24 76 66 101 93 44 47 94 88 175 142 21 14 61 44 90 68
30 24 70 55 89 69 20 15 47 38 60 53 l25 25 3 -25 c2 -14 -1 -39 -7 -56z"/>
<path d="M10200 9453 c-26 -5 -77 -37 -98 -63 -8 -10 -11 -32 -7 -65 24 -219
34 -502 29 -825 -2 -184 -7 -344 -9 -356 -4 -19 -65 -49 -90 -44 -6 1 -12 2
-15 1 -25 -9 -336 -15 -349 -7 -9 6 -158 15 -378 22 -153 5 -206 4 -217 -5 -8
-7 -20 -10 -25 -6 -7 4 -8 -1 -4 -12 6 -15 4 -16 -9 -5 -12 10 -18 10 -27 -2
-9 -10 -9 -32 0 -87 6 -40 9 -87 6 -105 -4 -24 -2 -32 7 -28 8 3 16 -4 19 -15
3 -12 2 -21 -1 -21 -10 0 -8 -114 1 -121 5 -4 14 -38 20 -78 6 -39 15 -71 20
-71 5 0 5 -9 2 -21 -6 -18 -4 -20 14 -14 16 5 20 3 15 -9 -8 -21 6 -20 36 4
14 11 32 20 40 20 9 0 31 13 50 30 19 16 42 29 49 30 19 0 71 50 71 67 0 16
66 18 75 2 4 -5 -2 -18 -13 -27 -107 -91 -174 -143 -209 -166 -35 -22 -43 -32
-43 -57 0 -27 3 -30 22 -23 20 6 21 5 10 -9 -7 -8 -12 -19 -11 -23 1 -5 -1
-17 -6 -27 -4 -10 -2 -31 5 -48 7 -16 15 -42 17 -57 7 -46 10 -56 22 -85 6
-16 11 -33 11 -38 0 -5 5 -9 11 -9 6 0 8 -9 4 -20 -6 -20 -2 -20 227 -21 128
-1 320 -1 426 0 149 1 193 -1 197 -11 2 -7 6 -38 9 -68 3 -30 9 -86 15 -125 5
-38 10 -117 11 -175 2 -100 3 -431 1 -458 -1 -9 -16 -13 -53 -11 -79 3 -377
-10 -505 -22 l-111 -11 4 -49 c3 -40 1 -49 -13 -49 -14 0 -14 -2 -2 -17 8 -10
14 -30 13 -44 -1 -18 4 -26 15 -25 10 1 17 -8 19 -22 2 -14 9 -22 16 -19 7 3
18 -4 24 -14 10 -16 9 -19 -3 -19 -10 0 -15 -9 -14 -27 0 -24 2 -25 8 -8 8 19
8 19 20 -3 6 -12 23 -25 37 -28 14 -4 30 -16 35 -28 39 -85 80 -123 118 -112
16 5 275 20 321 18 14 0 30 4 36 9 6 5 41 10 77 12 l67 2 0 819 c0 813 0 819
-20 801 -12 -11 -26 -15 -37 -10 -16 6 -13 11 20 39 l37 33 0 1012 c0 556 -3
1010 -7 1010 -5 -1 -19 -4 -33 -6z m-407 -1791 c44 -2 47 -4 38 -21 -6 -10
-39 -39 -73 -64 -35 -25 -77 -57 -94 -71 -18 -15 -36 -26 -40 -27 -5 0 -29
-15 -54 -33 -31 -22 -46 -41 -48 -59 -3 -27 -5 -27 -78 -27 -41 0 -74 4 -74 9
0 4 30 29 68 54 37 25 77 55 89 66 12 12 26 21 31 21 5 0 32 22 60 48 41 38
52 55 52 79 0 30 2 31 38 29 20 -2 59 -3 85 -4z m355 -30 c12 -8 -48 -72 -135
-144 -38 -30 -49 -66 -35 -107 10 -28 9 -29 -26 -33 -21 -1 -67 -2 -104 0 -65
4 -66 4 -47 23 10 10 22 19 27 19 4 0 30 22 57 48 28 26 64 56 79 67 49 35
130 105 139 120 9 17 25 19 45 7z"/>
<path d="M901 9344 c0 -11 3 -14 6 -6 3 7 2 16 -1 19 -3 4 -6 -2 -5 -13z"/>
<path d="M841 9264 c0 -11 3 -14 6 -6 3 7 2 16 -1 19 -3 4 -6 -2 -5 -13z"/>
<path d="M956 8353 c-6 -14 -5 -15 5 -6 7 7 10 15 7 18 -3 3 -9 -2 -12 -12z"/>
<path d="M970 8180 c0 -5 5 -10 10 -10 6 0 10 5 10 10 0 6 -4 10 -10 10 -5 0
-10 -4 -10 -10z"/>
<path d="M378 4465 c-11 -11 -116 -44 -154 -49 -22 -3 -73 -8 -114 -12 -119
-11 -110 9 -110 -239 0 -118 2 -215 5 -215 4 0 18 6 33 14 58 30 522 109 522
89 0 -7 -92 -109 -207 -230 -46 -47 -83 -92 -83 -100 0 -7 -4 -13 -9 -13 -10
0 -167 -153 -223 -218 l-38 -44 0 -379 0 -379 93 1 c50 1 110 -3 132 -8 22 -5
84 -10 138 -11 54 -1 113 -6 132 -12 19 -5 50 -14 68 -20 18 -5 43 -10 55 -10
12 0 30 -4 40 -9 17 -8 108 -40 127 -44 6 -2 25 -12 41 -24 17 -13 34 -20 37
-16 7 7 73 -23 82 -37 3 -6 14 -10 23 -10 9 0 40 -11 67 -24 28 -14 65 -31 83
-38 17 -7 32 -16 32 -20 0 -5 6 -8 14 -8 8 0 16 -4 18 -8 2 -4 24 -23 51 -42
26 -18 47 -37 47 -42 0 -5 5 -6 11 -3 6 4 13 -2 16 -14 3 -11 13 -23 24 -26
10 -3 21 -14 24 -24 3 -11 13 -22 23 -25 34 -13 72 -37 72 -47 0 -5 6 -9 13
-9 8 0 13 17 13 53 1 28 2 63 3 77 3 54 -12 190 -20 190 -5 0 -9 11 -9 25 0
14 -9 44 -19 66 -11 22 -18 46 -15 53 3 8 -6 30 -20 50 -14 21 -28 46 -31 57
-4 10 -11 19 -16 19 -5 0 -9 12 -9 28 0 16 -8 32 -19 39 -11 7 -26 25 -33 40
-7 15 -23 32 -36 38 -14 6 -22 18 -22 33 0 18 -4 23 -16 18 -12 -4 -15 -2 -11
9 11 28 -12 25 -33 -5 -26 -36 -45 -37 -104 -6 -26 14 -46 22 -46 19 0 -4 -8
1 -18 9 -20 17 -56 31 -127 49 -27 6 -54 16 -59 20 -6 5 -18 9 -28 9 -10 0
-18 4 -18 9 0 5 42 60 93 121 50 62 102 127 114 145 21 31 21 33 4 30 -15 -3
-18 3 -18 30 1 18 -4 39 -10 47 -14 17 -20 59 -10 76 5 6 7 12 5 13 -2 0 -21
3 -44 5 -41 5 -41 5 -161 -118 -67 -68 -137 -141 -156 -163 -102 -118 -93
-111 -119 -96 -14 7 -31 12 -39 10 -16 -3 -37 5 -94 31 -43 20 -41 20 -157 23
-43 1 -78 5 -78 9 0 8 88 103 256 275 60 61 159 164 219 229 61 65 142 152
182 193 40 42 68 78 64 81 -5 3 -8 30 -7 60 1 37 -3 54 -11 53 -8 -2 -11 18
-11 62 0 35 -6 78 -13 94 -14 30 -29 41 -29 20 0 -5 -5 -7 -11 -4 -6 4 -8 13
-5 20 3 8 -3 24 -13 37 -10 13 -16 29 -14 36 3 6 -2 12 -11 12 -9 0 -16 7 -16
15 0 24 -38 37 -113 37 -66 -1 -130 8 -168 23 -8 3 -18 3 -21 0z"/>
<path d="M10185 4359 c-16 -5 -43 -14 -60 -19 -16 -5 -55 -12 -85 -15 -93 -9
-130 -16 -136 -26 -17 -29 -131 -65 -259 -82 -11 -2 -47 -19 -80 -38 -34 -20
-100 -48 -148 -64 -48 -15 -84 -31 -81 -36 3 -5 -4 -9 -14 -9 -11 0 -28 -12
-37 -27 -10 -16 -24 -32 -32 -36 -7 -5 -11 -12 -8 -18 4 -5 1 -9 -4 -9 -6 0
-11 8 -11 17 0 13 -7 10 -31 -13 -19 -18 -28 -36 -25 -47 3 -12 -3 -21 -20
-27 -21 -8 -23 -13 -14 -30 9 -16 8 -22 -5 -26 -8 -3 -15 -14 -16 -23 -1 -9
-4 -5 -8 9 -6 23 -8 22 -41 -25 -18 -28 -33 -59 -32 -69 0 -11 -4 -28 -9 -38
-19 -35 -21 -68 -4 -68 8 0 15 -4 15 -10 0 -5 -13 -10 -29 -10 -36 0 -51 -37
-24 -58 14 -10 15 -16 5 -32 -6 -10 -9 -26 -6 -34 3 -8 0 -17 -6 -21 -8 -5 -8
-11 1 -21 6 -8 8 -14 3 -14 -5 0 -10 -11 -10 -25 -3 -40 -12 -55 -33 -55 -17
0 -19 -4 -10 -32 5 -17 12 -34 17 -37 14 -10 22 -41 11 -41 -6 0 -8 -4 -5 -9
3 -5 -1 -11 -9 -15 -9 -3 -15 0 -15 9 0 8 -5 15 -10 15 -13 0 2 -31 23 -49 13
-10 42 14 172 141 86 84 163 165 171 180 8 15 14 44 14 65 0 35 4 40 43 57 23
11 65 25 92 33 28 8 88 29 135 47 78 31 174 65 243 86 l28 9 -22 -36 c-12 -19
-33 -47 -46 -61 -13 -14 -21 -28 -18 -30 7 -7 -56 -72 -69 -72 -20 0 -96 -98
-90 -114 4 -11 1 -16 -10 -16 -21 0 -77 -54 -74 -71 2 -8 -2 -13 -8 -12 -14 3
-139 -125 -131 -134 8 -7 -18 -33 -33 -33 -6 0 -15 -11 -20 -25 -5 -14 -14
-25 -19 -25 -13 0 -78 -64 -115 -114 -31 -42 -78 -66 -126 -66 -40 0 -73 -18
-66 -35 3 -9 0 -12 -8 -9 -17 6 -40 -22 -33 -40 3 -7 0 -19 -6 -25 -6 -6 -7
-14 -3 -18 4 -4 11 -1 16 7 8 13 10 12 10 -2 0 -10 -7 -18 -16 -18 -9 0 -14
-6 -11 -12 2 -7 12 -12 22 -10 17 3 17 2 1 -13 -20 -21 -20 -23 2 -43 10 -10
13 -14 6 -9 -18 12 -28 -25 -10 -39 9 -6 13 -13 11 -16 -3 -3 -1 -16 4 -30 5
-14 5 -31 1 -38 -5 -8 -3 -25 6 -43 15 -28 15 -29 -5 -22 -12 3 -21 2 -21 -3
0 -13 25 -33 33 -26 3 3 11 3 18 -2 9 -5 8 -9 -6 -14 -20 -7 -32 -55 -15 -65
5 -3 10 -1 10 4 0 6 7 11 15 11 8 0 15 -7 15 -15 0 -8 -4 -15 -10 -15 -5 0
-10 -8 -10 -17 0 -16 2 -16 11 -3 8 11 12 12 16 3 3 -9 16 -7 46 9 73 37 81
41 112 49 16 4 64 20 105 35 41 15 98 28 126 30 29 1 63 9 79 20 30 20 87 30
210 39 44 3 123 15 175 25 162 32 212 37 300 29 l45 -4 2 385 3 385 -32 -35
c-17 -19 -73 -79 -124 -132 -86 -90 -97 -98 -131 -98 -21 0 -69 -7 -108 -15
-38 -8 -88 -15 -110 -15 -22 0 -65 -6 -94 -14 -29 -7 -62 -11 -72 -9 -11 3
-19 0 -19 -8 0 -7 -3 -10 -6 -7 -8 9 39 78 54 78 6 0 12 4 12 9 0 5 21 31 46
57 25 27 54 62 63 77 10 15 49 61 87 101 38 40 96 104 129 141 33 38 104 112
159 166 l98 98 -4 46 c-3 44 -2 47 24 52 l28 6 0 208 c0 225 3 216 -55 198z
m-1218 -1051 c-3 -8 -6 -5 -6 6 -1 11 2 17 5 13 3 -3 4 -12 1 -19z"/>
<path d="M8921 2944 c0 -11 3 -14 6 -6 3 7 2 16 -1 19 -3 4 -6 -2 -5 -13z"/>
<path d="M8970 2440 c0 -5 5 -10 10 -10 6 0 10 5 10 10 0 6 -4 10 -10 10 -5 0
-10 -4 -10 -10z"/>
<path d="M1485 2130 c-3 -5 -1 -10 4 -10 6 0 11 5 11 10 0 6 -2 10 -4 10 -3 0
-8 -4 -11 -10z"/>
<path d="M9670 1909 c-77 -8 -122 -19 -209 -48 -35 -11 -68 -21 -72 -21 -4 0
-20 -5 -36 -12 -15 -6 -34 -10 -41 -9 -8 1 -19 -2 -25 -7 -7 -5 -30 -15 -52
-22 -22 -7 -66 -32 -98 -56 -31 -24 -77 -54 -102 -66 -24 -13 -45 -29 -45 -35
0 -7 -9 -13 -19 -13 -11 0 -23 -4 -26 -10 -3 -5 -1 -10 6 -10 8 0 9 -4 0 -13
-7 -10 -7 -17 0 -24 8 -8 5 -15 -8 -24 -19 -15 -23 -32 -10 -45 4 -4 7 -25 7
-46 0 -21 5 -38 11 -38 6 0 9 -6 6 -14 -3 -7 -2 -30 3 -50 4 -20 4 -34 0 -31
-5 3 -8 -33 -7 -79 1 -46 6 -82 11 -79 4 3 6 -3 3 -13 -3 -11 -9 -35 -12 -54
-6 -28 -5 -33 5 -23 7 7 13 26 12 43 0 21 4 30 15 30 9 0 13 -6 10 -14 -3 -8
-1 -17 6 -19 18 -6 48 11 96 54 10 8 40 26 67 39 27 13 69 38 94 55 25 16 56
35 70 41 14 6 45 21 70 33 25 13 65 30 90 38 25 9 56 20 70 26 14 5 43 11 65
12 22 2 69 13 105 25 93 32 212 29 251 -6 11 -10 19 -14 19 -10 0 4 14 -1 30
-11 17 -9 30 -23 30 -30 0 -7 11 -13 24 -13 23 0 41 -27 36 -59 -1 -8 3 -17 8
-20 24 -15 36 -220 15 -262 -6 -13 -23 -49 -37 -79 -13 -30 -35 -68 -48 -84
-49 -61 -88 -112 -105 -135 -10 -14 -60 -68 -110 -120 -51 -52 -93 -99 -93
-103 0 -4 -11 -10 -25 -14 -13 -3 -27 -13 -30 -22 -7 -22 -56 -73 -196 -203
-139 -130 -214 -191 -267 -218 -22 -11 -43 -25 -47 -31 -4 -7 132 -10 414 -10
l420 0 73 73 c40 40 90 86 111 101 l37 28 0 792 0 791 -37 20 c-21 10 -45 24
-53 31 -15 12 -83 36 -110 39 -8 1 -22 5 -30 8 -18 7 -90 16 -185 23 -38 3
-74 6 -80 7 -5 1 -39 -1 -75 -4z"/>
<path d="M0 991 c0 -873 -3 -832 56 -750 16 23 57 73 91 113 65 75 63 71 163
366 17 50 43 158 57 235 12 61 14 236 4 249 -5 6 -10 21 -10 31 0 35 -40 204
-56 235 -9 17 -20 30 -26 30 -6 0 -8 4 -4 10 3 5 -3 18 -14 29 -10 10 -22 27
-25 38 -6 19 -121 143 -132 143 -4 0 -12 6 -18 13 -6 8 -28 24 -48 36 l-38 23
0 -801z"/>
<path d="M8915 1580 c-3 -5 -1 -10 4 -10 6 0 11 5 11 10 0 6 -2 10 -4 10 -3 0
-8 -4 -11 -10z"/>
<path d="M8920 1375 c0 -5 5 -17 10 -25 5 -8 10 -10 10 -5 0 6 -5 17 -10 25
-5 8 -10 11 -10 5z"/>
<path d="M7936 1245 c-10 -15 -22 -22 -31 -19 -8 4 -15 4 -15 1 0 -20 77 -123
172 -230 24 -26 52 -60 63 -76 43 -60 115 -170 115 -176 0 -3 16 -23 35 -43
19 -20 35 -40 35 -44 0 -5 9 -8 20 -8 11 0 20 -3 20 -8 0 -4 14 -13 31 -21 24
-10 42 -11 75 -4 24 6 44 6 44 2 0 -13 57 -11 81 2 11 6 29 31 40 55 20 48 88
139 140 189 17 17 37 42 45 58 8 15 19 27 24 27 6 0 10 7 10 15 0 18 -17 20
-22 3 -3 -8 -15 -2 -34 15 -17 16 -36 26 -47 23 -12 -3 -22 4 -29 19 -10 22
-13 23 -32 10 -26 -19 -40 -19 -33 0 4 8 2 17 -3 20 -6 4 -10 1 -10 -6 0 -7
-3 -9 -7 -5 -5 4 -8 13 -8 19 0 5 -6 12 -12 15 -7 2 -13 -3 -13 -12 0 -22 -27
-20 -35 3 -3 10 -15 21 -25 24 -12 3 -20 14 -20 26 0 23 -16 29 -23 9 -3 -10
-7 -10 -20 1 -10 7 -17 10 -17 5 0 -4 -5 -3 -12 4 -7 7 -18 12 -26 12 -18 0
-41 29 -42 53 0 9 -5 17 -10 17 -6 0 -10 -7 -8 -16 2 -10 -3 -19 -9 -21 -7 -3
-13 0 -13 7 0 6 -4 9 -9 5 -5 -3 -12 -1 -16 5 -10 16 -28 12 -21 -5 7 -18 -5
-20 -22 -3 -10 10 -14 10 -21 0 -11 -18 -26 2 -36 46 -3 17 -11 32 -16 32 -6
0 -8 -9 -4 -20 5 -15 3 -18 -8 -14 -8 3 -18 1 -22 -5 -3 -6 -17 -8 -30 -5 -16
4 -26 0 -34 -13 -10 -17 -10 -17 -11 3 0 12 -7 27 -15 34 -10 9 -15 9 -15 1 0
-6 -11 -11 -24 -11 -19 0 -23 -4 -19 -20 3 -11 0 -20 -6 -20 -6 0 -11 10 -11
23 0 22 -16 47 -31 47 -4 0 -14 -11 -23 -25z"/>
<path d="M6807 1103 c-10 -16 11 -39 23 -27 8 8 7 14 -4 23 -8 7 -17 8 -19 4z"/>
<path d="M1832 1079 c-4 -4 -18 -10 -32 -14 -19 -5 -21 -4 -10 4 12 9 10 11
-12 11 -20 0 -26 -4 -22 -15 4 -10 2 -13 -8 -10 -20 8 -34 -12 -42 -58 -4 -21
-33 -88 -64 -150 -31 -62 -75 -151 -96 -199 -21 -49 -43 -88 -47 -88 -4 0 -27
-32 -49 -71 -57 -96 -108 -162 -185 -238 -36 -35 -65 -66 -65 -70 -1 -3 -24
-24 -52 -46 -28 -22 -74 -61 -101 -87 l-50 -48 340 0 340 0 37 38 c20 20 44
45 54 55 9 10 56 59 105 108 48 49 87 94 87 100 0 5 27 38 60 71 33 34 60 65
60 69 0 4 32 31 70 60 39 30 70 57 70 60 0 4 38 47 85 95 150 156 185 197 256
293 51 72 66 98 57 108 -6 8 -20 10 -36 6 -17 -4 -23 -2 -18 5 3 6 2 13 -3 17
-6 3 -15 -4 -21 -15 -12 -22 -45 -27 -54 -7 -5 9 -7 9 -12 -1 -5 -10 -9 -10
-20 -1 -11 9 -14 9 -14 -1 0 -7 -6 -10 -13 -7 -8 3 -20 1 -28 -3 -8 -5 -19 -4
-27 3 -11 9 -17 7 -28 -8 -12 -16 -18 -18 -34 -7 -11 6 -38 12 -60 12 -22 0
-40 5 -40 10 0 13 -33 13 -45 1 -6 -5 -46 -11 -90 -12 -68 -2 -80 0 -83 14 -4
20 -13 22 -29 6 -7 -7 -15 -5 -28 7 -14 15 -18 15 -26 3 -6 -9 -11 -11 -16 -3
-9 11 -49 14 -61 3z"/>
</g>
</svg>
